<?xml version="1.0" encoding="utf-8"?>
<!-- Generator: Adobe Illustrator 27.0.1, SVG Export Plug-In . SVG Version: 6.00 Build 0)  -->
<svg version="1.1" width="20" height="20" id="Layer_2_00000157989975304068030490000011828752897871982503_"
	 xmlns="http://www.w3.org/2000/svg" xmlns:xlink="http://www.w3.org/1999/xlink" x="0px" y="0px" viewBox="0 0 20 20"
	 style="enable-background:new 0 0 20 20;" xml:space="preserve">
<style type="text/css">
	.st0{fill:#C7C5C5;}
</style>
<g id="Layer_1-2">
	<path class="st0" d="M10,2.7L6.8,8.3l2.1,1.1L10,7.5l3.9,6.8l2.1-1.1L10,2.7z M5.7,10.1L0,20h3.6L5,17.6H4.2l3.7-6.4
		C7.8,11.2,5.7,10.1,5.7,10.1z M10.1,11.5L7.5,14l2.5,2.5l2.5-2.5C12.6,14,10.1,11.5,10.1,11.5z M17.1,15L15,16.1l0.8,1.5H7.4
		L6.1,20H20L17.1,15L17.1,15z"/>
</g>
</svg>
